<?xml version="1.0" encoding="utf-8"?>
<!-- Generator: Adobe Illustrator 19.1.0, SVG Export Plug-In . SVG Version: 6.00 Build 0)  -->
<svg version="1.1" id="Layer_1" xmlns="http://www.w3.org/2000/svg" xmlns:xlink="http://www.w3.org/1999/xlink" x="0px" y="0px"
	 width="528px" height="120px" viewBox="0 0 528 120" style="enable-background:new 0 0 528 120;" xml:space="preserve">
<style type="text/css">
	.st0{fill:none;stroke:#1FAB54;stroke-width:6;stroke-miterlimit:10;}
	.st1{fill:none;}
	.st2{fill:#E07D10;}
	.st3{fill:none;stroke:#ED5FA6;stroke-width:7;stroke-linecap:round;stroke-linejoin:round;stroke-miterlimit:10;}
	.st4{fill:none;stroke:#AA87FF;stroke-width:7;stroke-linecap:round;stroke-linejoin:round;stroke-miterlimit:10;}
	.st5{fill:none;stroke:#FF9C39;stroke-width:7;stroke-linecap:round;stroke-linejoin:round;stroke-miterlimit:10;}
	.st6{fill:#8AF281;stroke:#8AF281;stroke-linecap:round;stroke-linejoin:round;stroke-miterlimit:10;}
	.st7{fill:#FF9C39;stroke:#E07D10;stroke-linecap:round;stroke-linejoin:round;stroke-miterlimit:10;}
	.st8{fill:none;stroke:#8AF281;stroke-width:7;stroke-linecap:round;stroke-linejoin:round;stroke-miterlimit:10;}
	.st9{fill:#ED5FA6;stroke:#ED5FA6;stroke-width:7;stroke-linecap:round;stroke-linejoin:round;stroke-miterlimit:10;}
	.st10{fill:none;stroke:#1FAB54;stroke-width:7;stroke-linecap:round;stroke-linejoin:round;stroke-miterlimit:10;}
	.st11{fill:none;stroke:#1FAB54;stroke-width:6;stroke-linecap:round;stroke-linejoin:round;stroke-miterlimit:10;}
	.st12{fill:#FF9C39;stroke:#FF9C39;stroke-width:5;stroke-linecap:round;stroke-miterlimit:10;}
	.st13{fill:none;stroke:#1FAB54;stroke-width:4;stroke-miterlimit:10;}
	.st14{fill:none;stroke:#3C91E5;stroke-width:4;stroke-miterlimit:10;}
	.st15{fill:#FFFFFF;}
	.st16{fill:none;stroke:#11ACCD;stroke-width:5;stroke-linecap:round;stroke-miterlimit:10;}
	.st17{fill:#11ACCD;}
	.st18{fill:none;stroke:#FF9C39;stroke-width:4;stroke-miterlimit:10;}
	.st19{fill:none;stroke:#63D9EA;stroke-width:7;stroke-linecap:round;stroke-miterlimit:10;}
	.st20{fill:none;stroke:#63D9EA;stroke-width:8;stroke-linecap:round;stroke-miterlimit:10;}
	.st21{fill:none;stroke:#000000;stroke-linecap:round;stroke-linejoin:round;stroke-miterlimit:10;}
	.st22{fill:none;stroke:#000000;stroke-width:1.5;stroke-linecap:round;stroke-linejoin:round;stroke-miterlimit:10;}
	.st23{fill:none;stroke:#000000;stroke-linecap:round;stroke-miterlimit:10;}
	.st24{fill:none;stroke:#000000;stroke-width:1.5;stroke-linecap:round;stroke-miterlimit:10;}
	.st25{fill:none;stroke:#000000;stroke-width:2;stroke-linecap:round;stroke-linejoin:round;stroke-miterlimit:10;}
	.st26{fill:none;stroke:#000000;stroke-width:1.5;stroke-miterlimit:10;}
	.st27{fill:none;stroke:#000000;stroke-miterlimit:10;}
	.st28{fill:none;stroke:#000000;stroke-width:2;stroke-miterlimit:10;}
	.st29{fill:none;stroke:#000000;stroke-width:2;stroke-linecap:round;stroke-miterlimit:10;}
	.st30{fill:none;stroke:#FF9C39;stroke-width:6;stroke-miterlimit:10;}
	.st31{fill:none;stroke:#000000;stroke-linecap:round;stroke-linejoin:round;}
	.st32{stroke:#000000;stroke-linecap:round;stroke-linejoin:round;stroke-miterlimit:10;}
	.st33{fill:none;stroke:#000000;stroke-width:1.5;stroke-linejoin:round;stroke-miterlimit:10;}
	.st34{fill:none;stroke:#000000;stroke-linejoin:round;stroke-miterlimit:10;}
	.st35{clip-path:url(#SVGID_2_);fill:none;stroke:#000000;stroke-linejoin:round;stroke-miterlimit:10;}
	.st36{clip-path:url(#SVGID_2_);fill:none;stroke:#ADADEB;stroke-linejoin:round;stroke-miterlimit:10;}
	.st37{clip-path:url(#SVGID_2_);}
	.st38{stroke:#000000;stroke-linejoin:round;stroke-miterlimit:10;}
	.st39{stroke:#000000;stroke-width:3;stroke-linejoin:round;stroke-miterlimit:10;}
	.st40{fill:none;stroke:#000000;stroke-width:2;stroke-linejoin:round;stroke-miterlimit:10;}
	.st41{fill:none;stroke:#E84D39;stroke-width:3;stroke-linecap:round;stroke-linejoin:round;}
	.st42{fill:#E84D39;}
	.st43{fill:none;stroke:#11ACCD;stroke-width:2;stroke-linecap:round;stroke-linejoin:round;}
	.st44{fill:none;stroke:#F9685D;stroke-width:2;stroke-linecap:round;stroke-linejoin:round;}
	.st45{fill:#F9685D;}
	.st46{fill:#11ACCD;stroke:#000000;stroke-linecap:round;stroke-miterlimit:10;}
	.st47{stroke:#000000;stroke-linecap:round;stroke-miterlimit:10;}
	.st48{fill:#FFFF00;stroke:#000000;stroke-linecap:round;stroke-miterlimit:10;}
	.st49{fill:#F9685D;stroke:#000000;stroke-linecap:round;stroke-miterlimit:10;}
	.st50{fill:#D6D8DA;stroke:#000000;stroke-linecap:round;stroke-miterlimit:10;}
	.st51{fill:none;stroke:#FF9C39;stroke-width:5;stroke-linecap:round;stroke-linejoin:round;stroke-miterlimit:10;}
	.st52{fill:#FF9C39;}
	.st53{fill:#AA87FF;}
	.st54{fill:#ED5FA6;}
	.st55{fill:#1FAB54;}
	.st56{fill:none;stroke:#000000;stroke-width:4;stroke-linecap:round;stroke-linejoin:round;stroke-miterlimit:10;}
	.st57{stroke:#000000;stroke-miterlimit:10;}
	.st58{stroke:#000000;stroke-width:2;stroke-linecap:round;stroke-linejoin:round;stroke-miterlimit:10;}
	.st59{fill:none;stroke:#000000;stroke-width:3;stroke-linecap:round;stroke-linejoin:round;stroke-miterlimit:10;}
	.st60{fill:none;stroke:#000000;stroke-linejoin:round;}
	.st61{fill:none;stroke:#000000;stroke-width:7;stroke-linecap:round;stroke-linejoin:round;stroke-miterlimit:10;}
	.st62{fill:none;stroke:#11ACCD;stroke-width:3;stroke-linecap:round;stroke-linejoin:round;}
	.st63{fill:none;stroke:#11ACCD;stroke-width:2;stroke-linecap:round;stroke-miterlimit:10;}
	.st64{fill:none;stroke:#E07D10;stroke-width:2;stroke-linecap:round;stroke-miterlimit:10;}
	.st65{fill:none;stroke:#11ACCD;stroke-width:2;stroke-miterlimit:10;}
	.st66{fill:none;stroke:#000000;stroke-width:3;stroke-linecap:square;stroke-miterlimit:10;}
	.st67{fill:#BE2612;}
	.st68{fill:none;stroke:#BE2612;stroke-width:2;stroke-linecap:round;stroke-linejoin:round;}
	.st69{fill:none;stroke:#21242C;stroke-linecap:round;stroke-linejoin:round;stroke-miterlimit:10;}
	.st70{fill:none;stroke:#11ACCD;stroke-width:3;stroke-linecap:round;stroke-miterlimit:10;}
	.st71{fill:#FFFFFF;stroke:#000000;stroke-miterlimit:10;}
	.st72{fill:none;stroke:#3C91E5;stroke-width:6;stroke-miterlimit:10;}
	.st73{font-family:'KaTeX_Main-Regular';}
	.st74{font-size:18px;}
</style>
<line class="st12" x1="42" y1="18" x2="240" y2="18"/>
<line class="st12" x1="306" y1="102" x2="504" y2="102"/>
<line class="st12" x1="306" y1="18" x2="504" y2="18"/>
<line class="st12" x1="42" y1="102" x2="240" y2="102"/>
<g>
	<g>
		<line class="st16" x1="42" y1="24" x2="42" y2="83.9"/>
		<g>
			<path class="st17" d="M42,96c-2.1-5.7-5.7-12.7-9.5-17.1l9.5,3.4l9.5-3.4C47.7,83.3,44.1,90.3,42,96z"/>
		</g>
	</g>
</g>
<g>
	<g>
		<line class="st16" x1="108" y1="24" x2="108" y2="83.9"/>
		<g>
			<path class="st17" d="M108,96c-2.1-5.7-5.7-12.7-9.5-17.1l9.5,3.4l9.5-3.4C113.7,83.3,110.1,90.3,108,96z"/>
		</g>
	</g>
</g>
<g>
	<g>
		<line class="st16" x1="174" y1="24" x2="174" y2="83.9"/>
		<g>
			<path class="st17" d="M174,96c-2.1-5.7-5.7-12.7-9.5-17.1l9.5,3.4l9.5-3.4C179.7,83.3,176.1,90.3,174,96z"/>
		</g>
	</g>
</g>
<g>
	<g>
		<line class="st16" x1="240" y1="24" x2="240" y2="83.9"/>
		<g>
			<path class="st17" d="M240,96c-2.1-5.7-5.7-12.7-9.5-17.1l9.5,3.4l9.5-3.4C245.7,83.3,242.1,90.3,240,96z"/>
		</g>
	</g>
</g>
<g>
	<g>
		<line class="st16" x1="306" y1="24" x2="306" y2="83.9"/>
		<g>
			<path class="st17" d="M306,96c-2.1-5.7-5.7-12.7-9.5-17.1l9.5,3.4l9.5-3.4C311.7,83.3,308.1,90.3,306,96z"/>
		</g>
	</g>
</g>
<g>
	<g>
		<line class="st16" x1="372" y1="24" x2="372" y2="83.9"/>
		<g>
			<path class="st17" d="M372,96c-2.1-5.7-5.7-12.7-9.5-17.1l9.5,3.4l9.5-3.4C377.7,83.3,374.1,90.3,372,96z"/>
		</g>
	</g>
</g>
<g>
	<g>
		<line class="st16" x1="438" y1="24" x2="438" y2="83.9"/>
		<g>
			<path class="st17" d="M438,96c-2.1-5.7-5.7-12.7-9.5-17.1l9.5,3.4l9.5-3.4C443.7,83.3,440.1,90.3,438,96z"/>
		</g>
	</g>
</g>
<g>
	<g>
		<line class="st16" x1="504" y1="24" x2="504" y2="83.9"/>
		<g>
			<path class="st17" d="M504,96c-2.1-5.7-5.7-12.7-9.5-17.1l9.5,3.4l9.5-3.4C509.7,83.3,506.1,90.3,504,96z"/>
		</g>
	</g>
</g>
<g>
	<circle class="st28" cx="42" cy="60" r="18"/>
	<polyline class="st23" points="42,42 42,18 240,18 	"/>
	<polyline class="st21" points="240,102 42,102 42,78 	"/>
	<line class="st26" x1="42" y1="46.5" x2="42" y2="58.5"/>
	<line class="st26" x1="36" y1="52.5" x2="48" y2="52.5"/>
	<line class="st26" x1="36" y1="70.5" x2="48" y2="70.5"/>
</g>
<g>
	<circle class="st32" cx="174" cy="102" r="1.5"/>
	<rect x="168" y="96" class="st1" width="12" height="12"/>
</g>
<g>
	<circle class="st32" cx="108" cy="102" r="1.5"/>
	<rect x="102" y="96" class="st1" width="12" height="12"/>
</g>
<g>
	<circle class="st32" cx="108" cy="18" r="1.5"/>
	<rect x="102" y="12" class="st1" width="12" height="12"/>
</g>
<g>
	<circle class="st32" cx="174" cy="18" r="1.5"/>
	<rect x="168" y="12" class="st1" width="12" height="12"/>
</g>
<g>
	<line class="st21" x1="108" y1="36.6" x2="108" y2="18"/>
	<polyline class="st25" points="108,83.4 99,79.5 117,71.7 99,63.9 117,56.1 99,48.3 117,40.5 108,36.6 	"/>
	<line class="st21" x1="108" y1="102" x2="108" y2="83.4"/>
	<rect x="96" y="18" class="st1" width="24" height="84"/>
</g>
<g>
	<line class="st21" x1="174" y1="36.6" x2="174" y2="18"/>
	<polyline class="st25" points="174,83.4 165,79.5 183,71.7 165,63.9 183,56.1 165,48.3 183,40.5 174,36.6 	"/>
	<line class="st21" x1="174" y1="102" x2="174" y2="83.4"/>
	<rect x="162" y="18" class="st1" width="24" height="84"/>
</g>
<g>
	<line class="st21" x1="240" y1="36.6" x2="240" y2="18"/>
	<polyline class="st25" points="240,83.4 231,79.5 249,71.7 231,63.9 249,56.1 231,48.3 249,40.5 240,36.6 	"/>
	<line class="st21" x1="240" y1="102" x2="240" y2="83.4"/>
	<rect x="228" y="18" class="st1" width="24" height="84"/>
</g>
<g>
	<circle class="st28" cx="372" cy="60" r="18"/>
	<polyline class="st23" points="372,42 372,18 504,18 	"/>
	<polyline class="st21" points="504,102 372,102 372,78 	"/>
	<line class="st26" x1="372" y1="46.5" x2="372" y2="58.5"/>
	<line class="st26" x1="366" y1="52.5" x2="378" y2="52.5"/>
	<line class="st26" x1="366" y1="70.5" x2="378" y2="70.5"/>
</g>
<g>
	<circle class="st32" cx="438" cy="102" r="1.5"/>
	<rect x="432" y="96" class="st1" width="12" height="12"/>
</g>
<g>
	<circle class="st32" cx="372" cy="102" r="1.5"/>
	<rect x="366" y="96" class="st1" width="12" height="12"/>
</g>
<g>
	<circle class="st32" cx="372" cy="18" r="1.5"/>
	<rect x="366" y="12" class="st1" width="12" height="12"/>
</g>
<g>
	<circle class="st32" cx="438" cy="18" r="1.5"/>
	<rect x="432" y="12" class="st1" width="12" height="12"/>
</g>
<g>
	<line class="st21" x1="306" y1="36.6" x2="306" y2="18"/>
	<polyline class="st25" points="306,83.4 297,79.5 315,71.7 297,63.9 315,56.1 297,48.3 315,40.5 306,36.6 	"/>
	<line class="st21" x1="306" y1="102" x2="306" y2="83.4"/>
	<rect x="294" y="18" class="st1" width="24" height="84"/>
</g>
<g>
	<line class="st21" x1="438" y1="36.6" x2="438" y2="18"/>
	<polyline class="st25" points="438,83.4 429,79.5 447,71.7 429,63.9 447,56.1 429,48.3 447,40.5 438,36.6 	"/>
	<line class="st21" x1="438" y1="102" x2="438" y2="83.4"/>
	<rect x="426" y="18" class="st1" width="24" height="84"/>
</g>
<g>
	<line class="st21" x1="504" y1="36.6" x2="504" y2="18"/>
	<polyline class="st25" points="504,83.4 495,79.5 513,71.7 495,63.9 513,56.1 495,48.3 513,40.5 504,36.6 	"/>
	<line class="st21" x1="504" y1="102" x2="504" y2="83.4"/>
	<rect x="492" y="18" class="st1" width="24" height="84"/>
</g>
<line class="st21" x1="306" y1="18" x2="372" y2="18"/>
<line class="st21" x1="372" y1="102" x2="306" y2="102"/>
<text transform="matrix(1 0 0 1 6 66)" class="st73 st74">V</text>
<text transform="matrix(1 0 0 1 72 66)" class="st73 st74">R1</text>
<text transform="matrix(1 0 0 1 138 66)" class="st73 st74">R2</text>
<text transform="matrix(1 0 0 1 204 66)" class="st73 st74">R3</text>
<text transform="matrix(1 0 0 1 270 66)" class="st73 st74">R3</text>
<text transform="matrix(1 0 0 1 336 66)" class="st73 st74">V</text>
<text transform="matrix(1 0 0 1 402 66)" class="st73 st74">R1</text>
<text transform="matrix(1 0 0 1 468 66)" class="st73 st74">R2</text>
</svg>
